<?xml version="1.0" encoding="utf-8"?>
<!-- Generator: Adobe Illustrator 22.0.1, SVG Export Plug-In . SVG Version: 6.00 Build 0)  -->
<svg version="1.1" id="Layer_1" xmlns="http://www.w3.org/2000/svg" xmlns:xlink="http://www.w3.org/1999/xlink" x="0px" y="0px"
	 viewBox="0 0 100 100" style="enable-background:new 0 0 100 100;" xml:space="preserve">
<style type="text/css">
	.st0{fill:#3C6EB4;}
</style>
<path id="brief_case" class="st0" d="M92.6,96.3H77.8V18.5h14.8c4.1,0,7.4,3.3,7.4,7.4v63C100,93,96.7,96.3,92.6,96.3z M29.6,18.5
	L29.6,18.5v-7.4c0-4.1,3.3-7.4,7.4-7.4H63c4.1,0,7.4,3.3,7.4,7.4v85.2H29.6V18.5z M37,18.5H63v-3.7c0-2-1.7-3.7-3.7-3.7H40.7
	c-2,0-3.7,1.7-3.7,3.7V18.5z M0,88.9v-63c0-4.1,3.3-7.4,7.4-7.4h14.8v77.8H7.4C3.3,96.3,0,93,0,88.9z"/>
</svg>
