<?xml version="1.0" encoding="utf-8"?>
<!-- Generator: Adobe Illustrator 22.0.1, SVG Export Plug-In . SVG Version: 6.00 Build 0)  -->
<svg version="1.1" id="Layer_1" xmlns="http://www.w3.org/2000/svg" xmlns:xlink="http://www.w3.org/1999/xlink" x="0px" y="0px"
	 viewBox="0 0 100 100" style="enable-background:new 0 0 100 100;" xml:space="preserve">
<style type="text/css">
	.st0{fill:#3C6EB4;}
</style>
<path id="tools" class="st0" d="M21.6,0L0.2,21.5l7.1,7.1l9.4-9.4l2.3,2.3l-9.4,9.4l7.3,7.3l9.5-9.5l2.1,2.1l-9.5,9.5l7.3,7.3
	l21.5-21.5 M100,78.4L78.5,99.9l-7.1-7.1l9.4-9.4L78.6,81l-9.4,9.4l-7.4-7.4l9.5-9.5l-2.2-2.1l-9.5,9.5l-7.3-7.3l21.5-21.5
	 M15.7,62.8l50-50l21.4,21.4l-50,50L15.7,62.8z M68,24.9l-2.4-2.4L25.4,62.7l2.4,2.4L68,24.9z M72.7,29.6l-2.4-2.4L30.1,67.4
	l2.4,2.4L72.7,29.6z M77.4,34.2L75,31.9L34.8,72.1l2.4,2.3L77.4,34.2z M75.3,3.4c2.6-2.6,6.8-2.6,9.5,0c0,0,0,0,0,0l11.8,11.8
	c2.6,2.6,2.6,6.9,0,9.5c0,0,0,0,0,0l-7.3,7.3L68,10.6L75.3,3.4z M14.1,65.6l20.3,20.3l-17.7,6.3l-8.8-8.8L14.1,65.6z M13.2,93.2
	L2.9,97l3.8-10.3L13.2,93.2z"/>
</svg>
